<?xml version="1.0" encoding="UTF-8" standalone="no"?>
<!-- Generator: Adobe Illustrator 17.0.0, SVG Export Plug-In . SVG Version: 6.00 Build 0)  -->

<svg
   version="1.1"
   x="0px"
   y="0px"
   width="824.30896"
   height="829.9422"
   viewBox="1861 -193.195 824.30896 829.94224"
   enable-background="new 1861 -193.195 1230 1252.315"
   xml:space="preserve"
   id="svg28"
   sodipodi:docname="GitKlientLogo4.svg"
   inkscape:version="1.1.1 (3bf5ae0d25, 2021-09-20)"
   xmlns:inkscape="http://www.inkscape.org/namespaces/inkscape"
   xmlns:sodipodi="http://sodipodi.sourceforge.net/DTD/sodipodi-0.dtd"
   xmlns:xlink="http://www.w3.org/1999/xlink"
   xmlns="http://www.w3.org/2000/svg"
   xmlns:svg="http://www.w3.org/2000/svg"><defs
   id="defs32"><linearGradient
     id="a"
     y1="543.79999"
     y2="513.79999"
     x2="0"
     gradientUnits="userSpaceOnUse"
     gradientTransform="matrix(1.125,0,0,1,-51.07,0)"><stop
       stop-color="#197cf1"
       id="stop42152" /><stop
       offset="1"
       stop-color="#20bcfa"
       id="stop42154" /></linearGradient><linearGradient
     id="a-7"
     y1="543.79999"
     y2="513.79999"
     x2="0"
     gradientUnits="userSpaceOnUse"
     gradientTransform="matrix(1.125,0,0,1,-51.07,0)"><stop
       stop-color="#197cf1"
       id="stop1773" /><stop
       offset="1"
       stop-color="#20bcfa"
       id="stop1775" /></linearGradient><linearGradient
     xlink:href="#a-7"
     id="b"
     y1="44"
     y2="11"
     x2="0"
     gradientUnits="userSpaceOnUse" /><linearGradient
     id="c"
     y1="10"
     y2="14"
     x2="0"
     gradientUnits="userSpaceOnUse"><stop
       stop-color="#1d1e1e"
       id="stop1779" /><stop
       offset="1"
       stop-color="#44484c"
       id="stop1781" /></linearGradient><linearGradient
     xlink:href="#a-7"
     id="d"
     y1="14"
     y2="10"
     gradientUnits="userSpaceOnUse"
     x2="0" /><linearGradient
     xlink:href="#a-7"
     id="e"
     y1="516.79999"
     y2="503.79999"
     x2="0"
     gradientUnits="userSpaceOnUse" /><linearGradient
     id="f"
     y1="18"
     y2="15"
     x2="0"
     gradientUnits="userSpaceOnUse"><stop
       stop-color="#c6cdd1"
       id="stop1786" /><stop
       offset="1"
       stop-color="#e0e5e7"
       id="stop1788" /></linearGradient><linearGradient
     xlink:href="#f"
     id="g"
     y1="517.79999"
     y2="514.79999"
     x2="0"
     gradientUnits="userSpaceOnUse" /><linearGradient
     id="h"
     y1="19"
     y2="3"
     x2="0"
     gradientUnits="userSpaceOnUse"
     gradientTransform="translate(0,-2)"><stop
       stop-color="#7cbaf8"
       id="stop1792" /><stop
       offset="1"
       stop-color="#f4fcff"
       id="stop1794" /></linearGradient><linearGradient
     id="i"
     y1="23"
     x1="16"
     y2="39"
     x2="32"
     gradientUnits="userSpaceOnUse"><stop
       stop-color="#292c2f"
       id="stop1797" /><stop
       offset="1"
       stop-opacity="0"
       id="stop1799" /></linearGradient><path
     fill-rule="evenodd"
     id="j"
     d="m 10,10 -1,1 1,1 -4,2 h 36 l -4,-2 1,-1 -1,-1 H 24 Z" /><linearGradient
     inkscape:collect="always"
     xlink:href="#a-7"
     id="linearGradient42150"
     x1="2458.4666"
     y1="-1063.4442"
     x2="1658.8291"
     y2="-1858.5165"
     gradientUnits="userSpaceOnUse"
     gradientTransform="translate(414.16368,1887.2112)" /></defs><sodipodi:namedview
   id="namedview30"
   pagecolor="#ffffff"
   bordercolor="#666666"
   borderopacity="1.0"
   inkscape:pageshadow="2"
   inkscape:pageopacity="0.0"
   inkscape:pagecheckerboard="0"
   showgrid="false"
   inkscape:zoom="0.51424764"
   inkscape:cx="196.40343"
   inkscape:cy="404.47439"
   inkscape:window-width="2496"
   inkscape:window-height="1403"
   inkscape:window-x="0"
   inkscape:window-y="0"
   inkscape:window-maximized="1"
   inkscape:current-layer="layer1"
   inkscape:snap-nodes="false"
   inkscape:snap-global="false"
   fit-margin-top="0"
   fit-margin-left="0"
   fit-margin-right="0"
   fit-margin-bottom="0" />
<g
   id="Capa_5"
   transform="translate(-211.99268,-221.88971)">
</g>
<g
   id="Capa_3"
   transform="translate(-211.99268,-221.88971)">
</g>
<g
   id="Capa_1"
   transform="translate(-211.99268,-221.88971)">
</g>

<g
   inkscape:groupmode="layer"
   id="layer3"
   inkscape:label="rectangle"
   style="display:inline"
   transform="translate(-211.99268,-221.88971)"><rect
     style="fill:url(#linearGradient42150);fill-opacity:1;stroke:none;stroke-width:16.362;stroke-linejoin:bevel;stroke-miterlimit:4;stroke-dasharray:none"
     id="rect1314"
     width="824.30896"
     height="829.9422"
     x="2072.9927"
     y="28.694708"
     rx="63.881207"
     ry="63.881207" /></g><g
   inkscape:groupmode="layer"
   id="layer1"
   inkscape:label="branch"
   transform="translate(-211.99268,-221.88971)"><g
     id="g43813"><path
       d="M 2258.5988,81.188436 A 113.27418,113.27418 0 0 0 2145.3246,194.46262 113.27418,113.27418 0 0 0 2258.5988,307.7368 113.27418,113.27418 0 0 0 2371.873,194.46262 113.27418,113.27418 0 0 0 2258.5988,81.188436 Z m 0,45.309674 a 67.964508,67.964508 0 0 1 67.9645,67.96451 67.964508,67.964508 0 0 1 -67.9645,67.9645 67.964508,67.964508 0 0 1 -67.9645,-67.9645 67.964508,67.964508 0 0 1 67.9645,-67.96451 z"
       id="path3"
       style="fill:#ffffff;fill-opacity:1;stroke-width:45.3097;stroke-linecap:square" /><path
       d="M 2258.5988,579.59483 A 113.27418,113.27418 0 0 0 2145.3246,692.86901 113.27418,113.27418 0 0 0 2258.5988,806.14319 113.27418,113.27418 0 0 0 2371.873,692.86901 113.27418,113.27418 0 0 0 2258.5988,579.59483 Z m 0,45.30967 a 67.964508,67.964508 0 0 1 67.9645,67.96451 67.964508,67.964508 0 0 1 -67.9645,67.96451 67.964508,67.964508 0 0 1 -67.9645,-67.96451 67.964508,67.964508 0 0 1 67.9645,-67.96451 z"
       id="path5"
       style="fill:#ffffff;fill-opacity:1;stroke-width:45.3097;stroke-linecap:square" /><path
       d="m 2235.944,262.42712 h 45.3096 V 624.9045 h -45.3096 z"
       id="path7-3"
       style="fill:#ffffff;fill-opacity:1;stroke-width:45.3097;stroke-linecap:square" /><path
       d="m 2689.0407,262.42712 v 90.61935 a 45.309672,45.309672 0 0 1 -45.3097,45.30967 h -317.1677 a 90.619344,90.619344 0 0 0 -2.2124,0 90.619344,90.619344 0 0 0 -88.4069,90.61934 h 45.3096 a 45.309672,45.309672 0 0 1 45.3097,-45.30967 h 317.1677 a 90.619344,90.619344 0 0 0 2.2125,0 90.619344,90.619344 0 0 0 88.4069,-90.61934 v -90.61935 z"
       id="path9-6"
       style="fill:#ffffff;fill-opacity:1;stroke-width:45.3097;stroke-linecap:square" /><path
       style="fill:#ffffff;fill-opacity:1;stroke:none;stroke-width:36.4618;stroke-linejoin:bevel;stroke-miterlimit:4;stroke-dasharray:none"
       d="m 2235.4976,262.24082 c -19.5175,-6.74045 -37.3188,-24.3079 -44.857,-44.26768 -13.1624,-34.85149 2.5304,-73.44742 37.3649,-91.89722 15.86,-8.40017 47.9344,-8.34262 63.9139,0.11463 47.3944,25.08394 56.1603,84.24963 17.7988,120.13243 -8.985,8.40429 -18.1386,13.9121 -27.9768,16.83374 -18.6995,5.55314 -28.0483,5.36796 -46.2438,-0.91594 z"
       id="path42987" /><path
       style="fill:#ffffff;fill-opacity:1;stroke:none;stroke-width:36.4618;stroke-linejoin:bevel;stroke-miterlimit:4;stroke-dasharray:none"
       d="m 2233.2915,760.96981 c -19.5174,-6.74045 -37.3187,-24.3079 -44.8569,-44.26767 -13.1624,-34.8515 2.5304,-73.44743 37.3649,-91.89723 15.86,-8.40016 47.9344,-8.34262 63.9139,0.11464 47.3944,25.08393 56.1603,84.24962 17.7987,120.13242 -8.9849,8.40429 -18.1386,13.9121 -27.9768,16.83375 -18.6994,5.55313 -28.0482,5.36795 -46.2438,-0.91595 z"
       id="path42987-5" /><path
       style="fill:#ffffff;fill-opacity:1;stroke:none;stroke-width:36.4618;stroke-linejoin:bevel;stroke-miterlimit:4;stroke-dasharray:none"
       d="m 2690.6701,263.80114 c -19.5175,-6.74045 -37.3188,-24.3079 -44.857,-44.26768 -13.1624,-34.85149 2.5305,-73.44742 37.3649,-91.89722 15.86,-8.40017 47.9344,-8.34262 63.9139,0.11463 47.3944,25.08394 56.1603,84.24963 17.7988,120.13243 -8.9849,8.40429 -18.1386,13.9121 -27.9768,16.83374 -18.6995,5.55314 -28.0483,5.36796 -46.2438,-0.91594 z"
       id="path42987-3" /><path
       d="M 2712.5283,81.188436 A 113.27418,113.27418 0 0 0 2599.2541,194.46262 113.27418,113.27418 0 0 0 2712.5283,307.7368 113.27418,113.27418 0 0 0 2825.8025,194.46262 113.27418,113.27418 0 0 0 2712.5283,81.188436 Z m 0,45.309674 a 67.964508,67.964508 0 0 1 67.9645,67.96451 67.964508,67.964508 0 0 1 -67.9645,67.9645 67.964508,67.964508 0 0 1 -67.9645,-67.9645 67.964508,67.964508 0 0 1 67.9645,-67.96451 z"
       id="path3-5"
       style="fill:#ffffff;fill-opacity:1;stroke-width:45.3097;stroke-linecap:square" /></g></g><g
   inkscape:groupmode="layer"
   id="layer4"
   inkscape:label="discover"
   transform="translate(-211.99268,-221.88971)" /></svg>
